<svg width="146" height="48" viewBox="0 0 146 48" fill="none" xmlns="http://www.w3.org/2000/svg">
<path d="M16 3.39999C19.008 3.39999 21.584 4.15199 23.728 5.65599C25.904 7.12799 27.552 9.14399 28.672 11.704C29.824 14.232 30.4 17.064 30.4 20.2C30.4 23.336 29.824 26.184 28.672 28.744C27.552 31.272 25.904 33.288 23.728 34.792C21.584 36.264 19.008 37 16 37H4.52798C3.69598 37 2.99198 36.728 2.41598 36.184C1.87198 35.608 1.59998 34.904 1.59998 34.072V6.32799C1.59998 5.49599 1.87198 4.80799 2.41598 4.26399C2.99198 3.68799 3.69598 3.39999 4.52798 3.39999H16ZM15.52 31.48C18.4 31.48 20.56 30.424 22 28.312C23.44 26.168 24.16 23.464 24.16 20.2C24.16 16.936 23.424 14.248 21.952 12.136C20.512 9.99199 18.368 8.91999 15.52 8.91999H7.59998V31.48H15.52Z" fill="#7512F4"/>
<path d="M60.9595 24.184C60.9595 26.744 60.3835 29.048 59.2315 31.096C58.0795 33.112 56.4955 34.68 54.4795 35.8C52.4955 36.92 50.3035 37.48 47.9035 37.48C45.4715 37.48 43.2635 36.92 41.2795 35.8C39.2955 34.68 37.7275 33.112 36.5755 31.096C35.4235 29.048 34.8475 26.744 34.8475 24.184C34.8475 21.624 35.4235 19.336 36.5755 17.32C37.7275 15.272 39.2955 13.688 41.2795 12.568C43.2635 11.416 45.4715 10.84 47.9035 10.84C50.3035 10.84 52.4955 11.416 54.4795 12.568C56.4955 13.688 58.0795 15.272 59.2315 17.32C60.3835 19.336 60.9595 21.624 60.9595 24.184ZM55.1995 24.184C55.1995 22.616 54.8635 21.224 54.1915 20.008C53.5515 18.76 52.6715 17.8 51.5515 17.128C50.4635 16.456 49.2475 16.12 47.9035 16.12C46.5595 16.12 45.3275 16.456 44.2075 17.128C43.1195 17.8 42.2395 18.76 41.5675 20.008C40.9275 21.224 40.6075 22.616 40.6075 24.184C40.6075 25.752 40.9275 27.144 41.5675 28.36C42.2395 29.576 43.1195 30.52 44.2075 31.192C45.3275 31.864 46.5595 32.2 47.9035 32.2C49.2475 32.2 50.4635 31.864 51.5515 31.192C52.6715 30.52 53.5515 29.576 54.1915 28.36C54.8635 27.144 55.1995 25.752 55.1995 24.184Z" fill="#7512F4"/>
<path d="M86.8439 1.48C87.2599 1.48 87.5959 1.624 87.8519 1.912C88.1399 2.16799 88.2839 2.50399 88.2839 2.91999V35.56C88.2839 35.976 88.1399 36.328 87.8519 36.616C87.5959 36.872 87.2599 37 86.8439 37C86.4279 37 86.0759 36.872 85.7879 36.616C85.5319 36.328 85.4039 35.976 85.4039 35.56V32.2C84.6039 33.672 83.4039 34.92 81.8039 35.944C80.2359 36.968 78.4919 37.48 76.5719 37.48C74.4599 37.48 72.5399 36.936 70.8119 35.848C69.1159 34.728 67.7719 33.192 66.7799 31.24C65.7879 29.288 65.2919 27.096 65.2919 24.664C65.2919 22.264 65.7879 20.088 66.7799 18.136C67.7719 16.184 69.1159 14.664 70.8119 13.576C72.5399 12.456 74.4439 11.896 76.5239 11.896C78.4119 11.896 80.1559 12.376 81.7559 13.336C83.3559 14.264 84.5719 15.48 85.4039 16.984V2.91999C85.4039 2.50399 85.5319 2.16799 85.7879 1.912C86.0759 1.624 86.4279 1.48 86.8439 1.48ZM76.8599 34.792C78.5239 34.792 80.0119 34.36 81.3239 33.496C82.6679 32.632 83.7079 31.432 84.4439 29.896C85.2119 28.328 85.5959 26.584 85.5959 24.664C85.5959 22.776 85.2119 21.064 84.4439 19.528C83.7079 17.992 82.6679 16.792 81.3239 15.928C80.0119 15.032 78.5239 14.584 76.8599 14.584C75.1959 14.584 73.6919 15.032 72.3479 15.928C71.0359 16.792 69.9959 17.992 69.2279 19.528C68.4919 21.064 68.1239 22.776 68.1239 24.664C68.1239 26.584 68.4919 28.312 69.2279 29.848C69.9959 31.384 71.0359 32.6 72.3479 33.496C73.6919 34.36 75.1959 34.792 76.8599 34.792Z" fill="#252525"/>
<path d="M116.199 12.472C116.615 12.472 116.951 12.616 117.207 12.904C117.495 13.192 117.639 13.544 117.639 13.96V35.56C117.639 35.976 117.495 36.328 117.207 36.616C116.951 36.872 116.615 37 116.199 37C115.783 37 115.431 36.872 115.143 36.616C114.887 36.328 114.759 35.976 114.759 35.56V32.344C113.959 33.784 112.759 35 111.159 35.992C109.559 36.984 107.815 37.48 105.927 37.48C103.783 37.48 101.847 36.92 100.119 35.8C98.4229 34.68 97.0789 33.144 96.0869 31.192C95.1269 29.24 94.6469 27.048 94.6469 24.616C94.6469 22.184 95.1429 20.008 96.1349 18.088C97.1269 16.136 98.4709 14.616 100.167 13.528C101.895 12.44 103.799 11.896 105.879 11.896C107.799 11.896 109.559 12.36 111.159 13.288C112.759 14.216 113.959 15.432 114.759 16.936V13.96C114.759 13.544 114.887 13.192 115.143 12.904C115.431 12.616 115.783 12.472 116.199 12.472ZM106.215 34.792C107.879 34.792 109.367 34.36 110.679 33.496C112.023 32.6 113.063 31.384 113.799 29.848C114.567 28.28 114.951 26.536 114.951 24.616C114.951 22.76 114.567 21.064 113.799 19.528C113.063 17.992 112.023 16.792 110.679 15.928C109.367 15.032 107.879 14.584 106.215 14.584C104.551 14.584 103.047 15.016 101.703 15.88C100.391 16.744 99.3509 17.944 98.5829 19.48C97.8469 20.984 97.4789 22.696 97.4789 24.616C97.4789 26.536 97.8469 28.28 98.5829 29.848C99.3189 31.384 100.343 32.6 101.655 33.496C102.999 34.36 104.519 34.792 106.215 34.792Z" fill="#252525"/>
<path d="M143.359 12.04C143.775 12.04 144.111 12.184 144.367 12.472C144.655 12.728 144.799 13.064 144.799 13.48V34.648C144.799 37.176 144.303 39.336 143.311 41.128C142.319 42.92 140.943 44.28 139.183 45.208C137.423 46.136 135.439 46.6 133.231 46.6C131.887 46.6 130.623 46.456 129.439 46.168C128.287 45.88 127.327 45.496 126.559 45.016C125.887 44.6 125.551 44.136 125.551 43.624C125.551 43.56 125.583 43.4 125.647 43.144C125.743 42.824 125.903 42.584 126.127 42.424C126.351 42.264 126.591 42.184 126.847 42.184C127.039 42.184 127.231 42.232 127.423 42.328C129.471 43.448 131.423 44.008 133.279 44.008C135.935 44.008 138.031 43.176 139.567 41.512C141.135 39.848 141.919 37.576 141.919 34.696V33.016C141.119 34.36 139.967 35.448 138.463 36.28C136.959 37.08 135.327 37.48 133.567 37.48C130.783 37.48 128.671 36.648 127.231 34.984C125.791 33.32 125.071 31.064 125.071 28.216V13.48C125.071 13.064 125.199 12.728 125.455 12.472C125.743 12.184 126.095 12.04 126.511 12.04C126.927 12.04 127.263 12.184 127.519 12.472C127.807 12.728 127.951 13.064 127.951 13.48V27.784C127.951 30.088 128.447 31.832 129.439 33.016C130.463 34.2 132.047 34.792 134.191 34.792C135.503 34.792 136.751 34.472 137.935 33.832C139.151 33.16 140.111 32.296 140.815 31.24C141.551 30.152 141.919 29 141.919 27.784V13.48C141.919 13.064 142.047 12.728 142.303 12.472C142.591 12.184 142.943 12.04 143.359 12.04Z" fill="#252525"/>
</svg>
